<svg xmlns="http://www.w3.org/2000/svg" width="22" height="19" viewBox="0 0 22 19">
  <g fill="none" fill-rule="evenodd" transform="translate(0 -2)">
    <path d="M0,0 L22,0 L22,22 L0,22 L0,0 Z M0,0 L22,0 L22,22 L0,22 L0,0 Z M0,0 L22,0 L22,22 L0,22 L0,0 Z M0,0 L22,0 L22,22 L0,22 L0,0 Z"/>
    <path fill="#898989" fill-rule="nonzero" d="M11.0045854,6.41666667 C13.5357359,6.41666667 15.590003,8.47 15.590003,11 C15.590003,11.5958333 15.4707822,12.155 15.259853,12.6775 L17.9377369,15.3541667 C19.322533,14.1991667 20.4138624,12.705 21.0833333,11 C19.4967788,6.97583333 15.5808322,4.125 10.9954146,4.125 C9.71149765,4.125 8.48260573,4.35416667 7.34542216,4.76666667 L9.32632257,6.74666667 C9.84906018,6.53583333 10.4084811,6.41666667 11.0045854,6.41666667 Z M1.83375019,3.91416667 L3.92470062,6.00416667 L4.34655904,6.42583333 C2.82420039,7.60833333 1.63199181,9.185 0.916666667,11 C2.50322116,15.0241667 6.4191678,17.875 11.0045854,17.875 C12.4260649,17.875 13.7833485,17.6 15.0214112,17.105 L15.4065863,17.49 L18.093641,20.1666667 L19.2583371,19.0025 L2.99844626,2.75 L1.83375019,3.91416667 Z M6.90522207,8.98333333 L8.32670153,10.4041667 C8.28084735,10.5966667 8.25333485,10.7983333 8.25333485,11 C8.25333485,12.5216667 9.48222677,13.75 11.0045854,13.75 C11.2063438,13.75 11.4081022,13.7225 11.6006897,13.6766667 L13.0221692,15.0975 C12.4077232,15.4 11.7290814,15.5833333 11.0045854,15.5833333 C8.47343489,15.5833333 6.4191678,13.53 6.4191678,11 C6.4191678,10.2758333 6.60258451,9.5975 6.90522207,8.98333333 Z M10.8578521,8.26833333 L13.7466652,11.1558333 L13.7650068,11.0091667 C13.7650068,9.4875 12.5361149,8.25916667 11.0137563,8.25916667 L10.8578521,8.26833333 Z"/>
  </g>
</svg>
