<?xml version="1.0" encoding="UTF-8"?>
<svg width="14px" height="18px" viewBox="0 0 14 18" version="1.1" xmlns="http://www.w3.org/2000/svg" xmlns:xlink="http://www.w3.org/1999/xlink">
    <!-- Generator: Sketch 43.1 (39012) - http://www.bohemiancoding.com/sketch -->
    <title>Shape</title>
    <desc>Created with Sketch.</desc>
    <defs></defs>
    <g id="Page-1" stroke="none" stroke-width="1" fill="none" fill-rule="evenodd">
        <g id="ic_lock_outline_black_24px" transform="translate(-4.000000, -1.000000)" fill-rule="nonzero" fill="#CECECE">
            <path d="M10.8571429,14.7142857 C11.8,14.7142857 12.5714286,13.9428571 12.5714286,13 C12.5714286,12.0571429 11.8,11.2857143 10.8571429,11.2857143 C9.91428571,11.2857143 9.14285714,12.0571429 9.14285714,13 C9.14285714,13.9428571 9.91428571,14.7142857 10.8571429,14.7142857 Z M16,7 L15.1428571,7 L15.1428571,5.28571429 C15.1428571,2.92 13.2228571,1 10.8571429,1 C8.49142857,1 6.57142857,2.92 6.57142857,5.28571429 L6.57142857,7 L5.71428571,7 C4.77142857,7 4,7.77142857 4,8.71428571 L4,17.2857143 C4,18.2285714 4.77142857,19 5.71428571,19 L16,19 C16.9428571,19 17.7142857,18.2285714 17.7142857,17.2857143 L17.7142857,8.71428571 C17.7142857,7.77142857 16.9428571,7 16,7 Z M8.2,5.28571429 C8.2,3.82 9.39142857,2.62857143 10.8571429,2.62857143 C12.3228571,2.62857143 13.5142857,3.82 13.5142857,5.28571429 L13.5142857,7 L8.2,7 L8.2,5.28571429 Z M16,17.2857143 L5.71428571,17.2857143 L5.71428571,8.71428571 L16,8.71428571 L16,17.2857143 Z" id="Shape"></path>
        </g>
    </g>
</svg>