<svg xmlns="http://www.w3.org/2000/svg" width="18" height="14" viewBox="0 0 18 14">
  <path fill="#9B9B9B" fill-rule="evenodd" d="M52.75,556.125 L45.75,551.75 L59.75,551.75 L52.75,556.125 Z M59.75,562.25 L45.75,562.25 L45.75,553.5 L52.75,557.875 L59.75,553.5 L59.75,562.25 Z M59.75,550 L45.75,550 C44.7875,550 44.00875,550.7875 44.00875,551.75 L44,562.25 C44,563.2125 44.7875,564 45.75,564 L59.75,564 C60.7125,564 61.5,563.2125 61.5,562.25 L61.5,551.75 C61.5,550.7875 60.7125,550 59.75,550 L59.75,550 Z" transform="translate(-44 -550)"/>
</svg>
