<svg xmlns="http://www.w3.org/2000/svg" width="22" height="15" viewBox="0 0 22 15">
  <g fill="none" fill-rule="evenodd" transform="translate(0 -4)">
    <polygon points="0 0 22 0 22 22 0 22"/>
    <path fill="#898989" fill-rule="nonzero" d="M11,4.58333333 C6.41666667,4.58333333 2.5025,7.43416667 0.916666667,11.4583333 C2.5025,15.4825 6.41666667,18.3333333 11,18.3333333 C15.5833333,18.3333333 19.4975,15.4825 21.0833333,11.4583333 C19.4975,7.43416667 15.5833333,4.58333333 11,4.58333333 Z M11,16.0416667 C8.47,16.0416667 6.41666667,13.9883333 6.41666667,11.4583333 C6.41666667,8.92833333 8.47,6.875 11,6.875 C13.53,6.875 15.5833333,8.92833333 15.5833333,11.4583333 C15.5833333,13.9883333 13.53,16.0416667 11,16.0416667 Z M11,8.70833333 C9.47833333,8.70833333 8.25,9.93666667 8.25,11.4583333 C8.25,12.98 9.47833333,14.2083333 11,14.2083333 C12.5216667,14.2083333 13.75,12.98 13.75,11.4583333 C13.75,9.93666667 12.5216667,8.70833333 11,8.70833333 Z"/>
  </g>
</svg>
